<?xml version="1.0" encoding="UTF-8"?>
<svg width="416px" height="122px" viewBox="0 0 416 122" version="1.1" xmlns="http://www.w3.org/2000/svg" xmlns:xlink="http://www.w3.org/1999/xlink">
    <defs>
        <polygon id="path-1" points="0.0852651245 0.05028 15.2723349 0.05028 15.2723349 15 0.0852651245 15"></polygon>
        <polygon id="path-3" points="0.14346839 0.05028 15.3281006 0.05028 15.3281006 15 0.14346839 15"></polygon>
    </defs>
    <g id="Page-1" stroke="none" stroke-width="1" fill="none" fill-rule="evenodd">
        <g id="Artboard" transform="translate(-150.000000, -88.000000)">
            <g id="Group-17" transform="translate(150.000000, 88.000000)">
                <path d="M182,100.593919 C182,93.1052212 189.919983,90.0381172 193.883562,94.2966049 C197.15486,97.7005585 193.707802,102.636291 193.707802,107.231628 C193.707802,115.234465 198.184314,117.276837 203.349521,117.276837 C207.653859,117.276837 212.994827,115.741512 212.994827,105.019059 L212.994827,2.71961706 L205.24343,2.71961706 L205.24343,0 L234,0 L234,2.71961706 L226.25219,2.71961706 L226.25219,99.5727329 C226.25219,115.741512 211.961785,120 202.836587,120 C193.707802,120 182,115.91171 182,100.593919" id="Fill-1" fill="#00A76A"></path>
                <path d="M270.986597,80.0142453 L259.622058,30.3041276 L250.129825,80.0142453 L270.986597,80.0142453 Z M240.294924,116.276352 L262.1691,0 L262.843836,0.854686336 L263.013403,0 L265.560445,0 L292.694737,116.276352 L301,116.276352 L301,119 L272.173567,119 L272.173567,116.276352 L279.125825,116.276352 L271.495298,82.7414394 L249.617591,82.7414394 L243.343602,116.276352 L250.299392,116.276352 L250.299392,119 L233,119 L233,116.276352 L240.294924,116.276352 Z" id="Fill-3" fill="#00A76A"></path>
                <path d="M320.989709,116.272806 L332.085386,116.272806 C338.74066,116.272806 343.689453,111.169513 343.689453,99.9344658 L343.689453,18.8953062 C343.689453,8.17094323 338.74066,2.71655491 331.232146,2.71655491 L320.989709,2.71655491 L320.989709,116.272806 Z M307.679162,116.272806 L307.679162,2.71655491 L300,2.71655491 L300,0 L332.426682,0 C343.006861,0 357,9.36253911 357,23.9985993 L357,93.802712 C357,108.101863 343.518805,119 332.935071,119 L300,119 L300,116.272806 L307.679162,116.272806 Z" id="Fill-5" fill="#00A76A"></path>
                <path d="M368,116.272806 L375.435529,116.272806 L375.435529,2.71655491 L368,2.71655491 L368,0 L414.137597,0 L414.137597,22.1296379 L411.433769,22.1296379 C411.433769,6.46866339 409.743876,2.71655491 401.125422,2.71655491 L388.616694,2.71655491 L388.616694,56.5156907 L396.390201,56.5156907 C405.012175,56.5156907 405.519143,54.6467293 405.519143,42.5605424 L408.222972,42.5605424 L408.222972,73.1980331 L405.519143,73.1980331 C405.519143,61.2856206 405.012175,59.2393384 396.390201,59.2393384 L388.616694,59.2393384 L388.616694,116.272806 L402.477336,116.272806 C411.09579,116.272806 413.123661,113.042021 413.123661,93.4587096 L416,93.4587096 L416,119 L368,119 L368,116.272806 Z" id="Fill-7" fill="#00A76A"></path>
                <g id="Group-11" transform="translate(99.000000, 106.000000)">
                    <mask id="mask-2" fill="white">
                        <use xlink:href="#path-1"></use>
                    </mask>
                    <g id="Clip-10"></g>
                    <path d="M0.2016,7.52388 C0.9324,11.64948 4.8672,15.00108 8.9964,15.00108 C13.1256,15.00108 15.8832,11.64948 15.156,7.52388 C14.4288,3.39828 10.4904,0.05028 6.3612,0.05028 C2.232,0.05028 -0.5256,3.39828 0.2016,7.52388" id="Fill-9" fill="#00A76A" mask="url(#mask-2)"></path>
                </g>
                <g id="Group-14" transform="translate(43.000000, 106.000000)">
                    <mask id="mask-4" fill="white">
                        <use xlink:href="#path-3"></use>
                    </mask>
                    <g id="Clip-13"></g>
                    <path d="M0.25992,7.52388 C0.98712,11.64948 4.92552,15.00108 9.05472,15.00108 C13.18392,15.00108 15.94152,11.64948 15.21072,7.52388 C14.48352,3.39828 10.54512,0.05028 6.41592,0.05028 C2.28672,0.05028 -0.46728,3.39828 0.25992,7.52388" id="Fill-12" fill="#00A76A" mask="url(#mask-4)"></path>
                </g>
                <path d="M7.10378627,20.0488738 L116.080867,20.0488738 L116.205649,4.56863578 C116.237736,1.84162063 118.326935,-0.0424989375 121.036478,0.00708315625 C121.082825,0.00354157813 121.129173,0 121.179085,0 L146.951824,0 C150.064233,0 153.037599,2.50743731 153.586638,5.6027766 C154.135677,8.69811588 152.053607,11.2055532 148.941199,11.2055532 L127.624944,11.2055532 L127.396772,40.0198328 L148.652419,40.0198328 C151.768393,40.0198328 154.738194,42.5272702 155.287232,45.6226094 C155.836271,48.7179487 153.757767,51.225386 150.641793,51.225386 L127.311207,51.225386 L75.9760751,51.225386 C72.8601014,51.225386 70.7815971,53.7363649 71.330636,56.8317042 C71.8796748,59.9235019 74.8494759,62.4344808 77.9654496,62.4344808 L127.222078,62.4344808 L175.273673,62.4344808 C178.389646,62.4344808 181.359447,64.9419181 181.912051,68.0372574 C182.46109,71.1325967 180.382586,73.640034 177.266612,73.640034 L127.132948,73.640034 L94.2298342,73.640034 C91.1138605,73.640034 89.0353563,76.1510129 89.5843951,79.2463522 C90.133434,82.3381499 93.1068002,84.8491288 96.2227739,84.8491288 L114.102188,84.8491288 C122.491074,84.8491288 126.6053,87.8771781 127.371816,92.2120697 C128.352242,97.7298484 122.344901,100 116.793905,100 L36.4417128,100 C30.8871509,100 24.7158117,95.5659442 22.7264371,90.1437881 L0.625840889,29.9050857 C-1.36353364,24.4829296 1.54922441,20.0488738 7.10378627,20.0488738" id="Fill-15" fill="#00A76A"></path>
            </g>
        </g>
    </g>
</svg>
