<?xml version="1.0" encoding="UTF-8"?>
<svg viewBox="0 0 190 86" version="1.1" xmlns="http://www.w3.org/2000/svg">
    <title>Sabka Bazaar</title>
    <g id="Page-1" stroke="none" stroke-width="1" fill="none" fill-rule="evenodd">
        <g id="Group-2">
            <g id="Group">
                <polygon id="Rectangle" fill="#F58823" points="46 13 123 13 123 86 46 86"></polygon>
                <polygon id="Rectangle" fill="#D00256" style="mix-blend-mode: hard-light;" points="0 6 77 6 77 79 0 79"></polygon>
                <polygon id="Rectangle" fill="#50DAE3" style="mix-blend-mode: darken;" points="103 0 190 0 190 82 103 82"></polygon>
            </g>
            <path d="M48.29,41.63 C49.67,41.63 50.905,41.445 51.995,41.075 C53.085,40.705 54.005,40.185 54.755,39.515 C55.505,38.845 56.075,38.04 56.465,37.1 C56.855,36.16 57.05,35.11 57.05,33.95 C57.05,32.23 56.605,30.835 55.715,29.765 C54.825,28.695 53.42,27.84 51.5,27.2 C51.02,27.04 50.535,26.89 50.045,26.75 C49.555,26.61 49.115,26.445 48.725,26.255 C48.335,26.065 48.02,25.84 47.78,25.58 C47.54,25.32 47.42,24.99 47.42,24.59 C47.42,24.01 47.66,23.54 48.14,23.18 C48.62,22.82 49.24,22.64 50,22.64 C50.6,22.64 51.22,22.765 51.86,23.015 C52.5,23.265 53.14,23.65 53.78,24.17 L53.78,24.17 L56.12,19.58 C55,18.98 53.83,18.525 52.61,18.215 C51.39,17.905 50.22,17.75 49.1,17.75 C47.9,17.75 46.815,17.93 45.845,18.29 C44.875,18.65 44.055,19.155 43.385,19.805 C42.715,20.455 42.195,21.235 41.825,22.145 C41.455,23.055 41.27,24.07 41.27,25.19 C41.27,26.31 41.445,27.235 41.795,27.965 C42.145,28.695 42.605,29.3 43.175,29.78 C43.745,30.26 44.395,30.645 45.125,30.935 C45.855,31.225 46.6,31.49 47.36,31.73 C48,31.95 48.545,32.15 48.995,32.33 C49.445,32.51 49.81,32.705 50.09,32.915 C50.37,33.125 50.57,33.355 50.69,33.605 C50.81,33.855 50.87,34.15 50.87,34.49 C50.87,35.05 50.635,35.55 50.165,35.99 C49.695,36.43 48.98,36.65 48.02,36.65 C47.18,36.65 46.33,36.46 45.47,36.08 C44.61,35.7 43.74,35.12 42.86,34.34 L42.86,34.34 L40.34,39.08 C42.78,40.78 45.43,41.63 48.29,41.63 Z M64.85,41 L66.2,37.07 L74.6,37.07 L75.95,41 L82.22,41 L73.61,18.38 L67.19,18.38 L58.58,41 L64.85,41 Z M73.04,32.6 L67.76,32.6 L70.4,25.07 L73.04,32.6 Z M94.25,41 C95.45,41 96.53,40.86 97.49,40.58 C98.45,40.3 99.265,39.88 99.935,39.32 C100.605,38.76 101.125,38.07 101.495,37.25 C101.865,36.43 102.05,35.49 102.05,34.43 C102.05,33.75 101.97,33.11 101.81,32.51 C101.65,31.91 101.385,31.37 101.015,30.89 C100.645,30.41 100.165,30.005 99.575,29.675 C98.985,29.345 98.27,29.1 97.43,28.94 C98.27,28.42 98.895,27.785 99.305,27.035 C99.715,26.285 99.92,25.34 99.92,24.2 C99.92,22.32 99.38,20.88 98.3,19.88 C97.22,18.88 95.64,18.38 93.56,18.38 L93.56,18.38 L84.8,18.38 L84.8,41 L94.25,41 Z M91.76,27.26 L90.68,27.26 L90.68,22.88 L91.76,22.88 C93.6,22.88 94.52,23.61 94.52,25.07 C94.52,26.53 93.6,27.26 91.76,27.26 L91.76,27.26 Z M91.97,36.44 L90.68,36.44 L90.68,31.64 L91.97,31.64 C93.45,31.64 94.51,31.83 95.15,32.21 C95.79,32.59 96.11,33.2 96.11,34.04 C96.11,34.88 95.79,35.49 95.15,35.87 C94.51,36.25 93.45,36.44 91.97,36.44 L91.97,36.44 Z M111.44,41 L111.44,31.19 L119.09,41 L126.71,41 L116.9,29.09 L125.87,18.38 L118.61,18.38 L111.44,27.71 L111.44,18.38 L105.56,18.38 L105.56,41 L111.44,41 Z M133.43,41 L134.78,37.07 L143.18,37.07 L144.53,41 L150.8,41 L142.19,18.38 L135.77,18.38 L127.16,41 L133.43,41 Z M141.62,32.6 L136.34,32.6 L138.98,25.07 L141.62,32.6 Z M39.005,70 C40.205,70 41.285,69.86 42.245,69.58 C43.205,69.3 44.02,68.88 44.69,68.32 C45.36,67.76 45.88,67.07 46.25,66.25 C46.62,65.43 46.805,64.49 46.805,63.43 C46.805,62.75 46.725,62.11 46.565,61.51 C46.405,60.91 46.14,60.37 45.77,59.89 C45.4,59.41 44.92,59.005 44.33,58.675 C43.74,58.345 43.025,58.1 42.185,57.94 C43.025,57.42 43.65,56.785 44.06,56.035 C44.47,55.285 44.675,54.34 44.675,53.2 C44.675,51.32 44.135,49.88 43.055,48.88 C41.975,47.88 40.395,47.38 38.315,47.38 L38.315,47.38 L29.555,47.38 L29.555,70 L39.005,70 Z M36.515,56.26 L35.435,56.26 L35.435,51.88 L36.515,51.88 C38.355,51.88 39.275,52.61 39.275,54.07 C39.275,55.53 38.355,56.26 36.515,56.26 L36.515,56.26 Z M36.725,65.44 L35.435,65.44 L35.435,60.64 L36.725,60.64 C38.205,60.64 39.265,60.83 39.905,61.21 C40.545,61.59 40.865,62.2 40.865,63.04 C40.865,63.88 40.545,64.49 39.905,64.87 C39.265,65.25 38.205,65.44 36.725,65.44 L36.725,65.44 Z M54.425,70 L55.775,66.07 L64.175,66.07 L65.525,70 L71.795,70 L63.185,47.38 L56.765,47.38 L48.155,70 L54.425,70 Z M62.615,61.6 L57.335,61.6 L59.975,54.07 L62.615,61.6 Z M91.805,70 L91.805,65.02 L82.325,65.02 L92.975,47.38 L74.255,47.38 L74.255,52.36 L83.165,52.36 L72.455,70 L91.805,70 Z M99.905,70 L101.255,66.07 L109.655,66.07 L111.005,70 L117.275,70 L108.665,47.38 L102.245,47.38 L93.635,70 L99.905,70 Z M108.095,61.6 L102.815,61.6 L105.455,54.07 L108.095,61.6 Z M123.965,70 L125.315,66.07 L133.715,66.07 L135.065,70 L141.335,70 L132.725,47.38 L126.305,47.38 L117.695,70 L123.965,70 Z M132.155,61.6 L126.875,61.6 L129.515,54.07 L132.155,61.6 Z M149.795,70 L149.795,61.3 L155.405,70 L162.725,70 L155.615,60.73 C157.235,60.35 158.46,59.625 159.29,58.555 C160.12,57.485 160.535,56.09 160.535,54.37 C160.535,53.41 160.38,52.51 160.07,51.67 C159.76,50.83 159.3,50.09 158.69,49.45 C158.08,48.81 157.305,48.305 156.365,47.935 C155.425,47.565 154.325,47.38 153.065,47.38 L153.065,47.38 L143.915,47.38 L143.915,70 L149.795,70 Z M150.905,57.49 L149.795,57.49 L149.795,51.91 L150.905,51.91 C152.065,51.91 152.955,52.15 153.575,52.63 C154.195,53.11 154.505,53.8 154.505,54.7 C154.505,55.6 154.195,56.29 153.575,56.77 C152.955,57.25 152.065,57.49 150.905,57.49 L150.905,57.49 Z" id="SABKABAZAAR" fill="#FFFFFF" fill-rule="nonzero"></path>
        </g>
    </g>
</svg>
